<mxfile host="app.diagrams.net" modified="2023-05-21T13:03:32.293Z" agent="Mozilla/5.0 (Macintosh; Intel Mac OS X 10_15_7) AppleWebKit/537.36 (KHTML, like Gecko) Chrome/113.0.0.0 Safari/537.36" etag="3MOeREvOuql0faT99wA1" version="21.3.2" type="github">
  <diagram name="第 1 页" id="_wVKVh2Jysjls4kzyFas">
    <mxGraphModel dx="1026" dy="661" grid="1" gridSize="10" guides="1" tooltips="1" connect="1" arrows="1" fold="1" page="1" pageScale="1" pageWidth="3300" pageHeight="4681" math="0" shadow="0">
      <root>
        <mxCell id="0" />
        <mxCell id="1" parent="0" />
        <mxCell id="Snn5ZzjotbLWIZ3ZBTEd-4" value="" style="edgeStyle=orthogonalEdgeStyle;rounded=0;orthogonalLoop=1;jettySize=auto;html=1;" edge="1" parent="1" source="dh_qy-4-Et_KlTZyHgmO-1" target="Snn5ZzjotbLWIZ3ZBTEd-3">
          <mxGeometry relative="1" as="geometry" />
        </mxCell>
        <mxCell id="Snn5ZzjotbLWIZ3ZBTEd-8" value="" style="edgeStyle=orthogonalEdgeStyle;rounded=0;orthogonalLoop=1;jettySize=auto;html=1;" edge="1" parent="1" source="dh_qy-4-Et_KlTZyHgmO-1" target="Snn5ZzjotbLWIZ3ZBTEd-3">
          <mxGeometry relative="1" as="geometry" />
        </mxCell>
        <mxCell id="Snn5ZzjotbLWIZ3ZBTEd-9" value="" style="edgeStyle=orthogonalEdgeStyle;rounded=0;orthogonalLoop=1;jettySize=auto;html=1;" edge="1" parent="1" source="dh_qy-4-Et_KlTZyHgmO-1" target="Snn5ZzjotbLWIZ3ZBTEd-3">
          <mxGeometry relative="1" as="geometry" />
        </mxCell>
        <mxCell id="Snn5ZzjotbLWIZ3ZBTEd-11" style="edgeStyle=orthogonalEdgeStyle;rounded=0;orthogonalLoop=1;jettySize=auto;html=1;" edge="1" parent="1" source="dh_qy-4-Et_KlTZyHgmO-1" target="Snn5ZzjotbLWIZ3ZBTEd-10">
          <mxGeometry relative="1" as="geometry" />
        </mxCell>
        <mxCell id="Snn5ZzjotbLWIZ3ZBTEd-42" value="同班" style="edgeLabel;html=1;align=center;verticalAlign=middle;resizable=0;points=[];" vertex="1" connectable="0" parent="Snn5ZzjotbLWIZ3ZBTEd-11">
          <mxGeometry x="0.245" relative="1" as="geometry">
            <mxPoint as="offset" />
          </mxGeometry>
        </mxCell>
        <mxCell id="Snn5ZzjotbLWIZ3ZBTEd-40" style="edgeStyle=orthogonalEdgeStyle;rounded=0;orthogonalLoop=1;jettySize=auto;html=1;entryX=0.5;entryY=0;entryDx=0;entryDy=0;" edge="1" parent="1" source="dh_qy-4-Et_KlTZyHgmO-1" target="Snn5ZzjotbLWIZ3ZBTEd-39">
          <mxGeometry relative="1" as="geometry" />
        </mxCell>
        <mxCell id="Snn5ZzjotbLWIZ3ZBTEd-41" value="同班" style="edgeLabel;html=1;align=center;verticalAlign=middle;resizable=0;points=[];" vertex="1" connectable="0" parent="Snn5ZzjotbLWIZ3ZBTEd-40">
          <mxGeometry x="0.425" y="1" relative="1" as="geometry">
            <mxPoint as="offset" />
          </mxGeometry>
        </mxCell>
        <mxCell id="dh_qy-4-Et_KlTZyHgmO-1" value="&lt;font style=&quot;font-size: 24px;&quot;&gt;孙少平&lt;/font&gt;" style="rounded=0;whiteSpace=wrap;html=1;" parent="1" vertex="1">
          <mxGeometry x="1010" y="490" width="120" height="60" as="geometry" />
        </mxCell>
        <mxCell id="Snn5ZzjotbLWIZ3ZBTEd-3" value="&lt;font style=&quot;font-size: 18px;&quot;&gt;润叶&lt;br&gt;县小学教师&lt;br&gt;&lt;/font&gt;" style="whiteSpace=wrap;html=1;rounded=0;" vertex="1" parent="1">
          <mxGeometry x="1480" y="940" width="120" height="60" as="geometry" />
        </mxCell>
        <mxCell id="Snn5ZzjotbLWIZ3ZBTEd-10" value="&lt;font style=&quot;font-size: 18px;&quot;&gt;润生&lt;br&gt;同班&lt;br&gt;&lt;/font&gt;" style="whiteSpace=wrap;html=1;rounded=0;" vertex="1" parent="1">
          <mxGeometry x="780" y="950" width="120" height="60" as="geometry" />
        </mxCell>
        <mxCell id="Snn5ZzjotbLWIZ3ZBTEd-14" style="edgeStyle=orthogonalEdgeStyle;rounded=0;orthogonalLoop=1;jettySize=auto;html=1;endArrow=none;endFill=0;curved=1;" edge="1" parent="1" source="Snn5ZzjotbLWIZ3ZBTEd-12" target="Snn5ZzjotbLWIZ3ZBTEd-10">
          <mxGeometry relative="1" as="geometry">
            <Array as="points">
              <mxPoint x="970" y="850" />
            </Array>
          </mxGeometry>
        </mxCell>
        <mxCell id="Snn5ZzjotbLWIZ3ZBTEd-46" value="父子" style="edgeLabel;html=1;align=center;verticalAlign=middle;resizable=0;points=[];" vertex="1" connectable="0" parent="Snn5ZzjotbLWIZ3ZBTEd-14">
          <mxGeometry x="-0.3025" y="-20" relative="1" as="geometry">
            <mxPoint as="offset" />
          </mxGeometry>
        </mxCell>
        <mxCell id="Snn5ZzjotbLWIZ3ZBTEd-15" style="edgeStyle=orthogonalEdgeStyle;rounded=0;orthogonalLoop=1;jettySize=auto;html=1;entryX=0.5;entryY=0;entryDx=0;entryDy=0;endArrow=none;endFill=0;curved=1;" edge="1" parent="1" source="Snn5ZzjotbLWIZ3ZBTEd-12" target="Snn5ZzjotbLWIZ3ZBTEd-3">
          <mxGeometry relative="1" as="geometry">
            <Array as="points">
              <mxPoint x="970" y="850" />
              <mxPoint x="1540" y="850" />
            </Array>
          </mxGeometry>
        </mxCell>
        <mxCell id="Snn5ZzjotbLWIZ3ZBTEd-32" value="父女" style="edgeLabel;html=1;align=center;verticalAlign=middle;resizable=0;points=[];" vertex="1" connectable="0" parent="Snn5ZzjotbLWIZ3ZBTEd-15">
          <mxGeometry x="-0.7656" y="40" relative="1" as="geometry">
            <mxPoint as="offset" />
          </mxGeometry>
        </mxCell>
        <mxCell id="Snn5ZzjotbLWIZ3ZBTEd-24" style="edgeStyle=orthogonalEdgeStyle;curved=1;rounded=0;orthogonalLoop=1;jettySize=auto;html=1;endArrow=none;endFill=0;" edge="1" parent="1" source="Snn5ZzjotbLWIZ3ZBTEd-12" target="Snn5ZzjotbLWIZ3ZBTEd-17">
          <mxGeometry relative="1" as="geometry" />
        </mxCell>
        <mxCell id="Snn5ZzjotbLWIZ3ZBTEd-25" value="兄弟" style="edgeLabel;html=1;align=center;verticalAlign=middle;resizable=0;points=[];" vertex="1" connectable="0" parent="Snn5ZzjotbLWIZ3ZBTEd-24">
          <mxGeometry x="-0.0846" y="-2" relative="1" as="geometry">
            <mxPoint as="offset" />
          </mxGeometry>
        </mxCell>
        <mxCell id="Snn5ZzjotbLWIZ3ZBTEd-12" value="田福堂&lt;br&gt;(村支部书记)" style="whiteSpace=wrap;html=1;rounded=0;" vertex="1" parent="1">
          <mxGeometry x="910" y="620" width="120" height="60" as="geometry" />
        </mxCell>
        <mxCell id="Snn5ZzjotbLWIZ3ZBTEd-18" style="edgeStyle=orthogonalEdgeStyle;rounded=0;orthogonalLoop=1;jettySize=auto;html=1;endArrow=none;endFill=0;curved=1;" edge="1" parent="1" source="Snn5ZzjotbLWIZ3ZBTEd-17" target="Snn5ZzjotbLWIZ3ZBTEd-3">
          <mxGeometry relative="1" as="geometry">
            <Array as="points">
              <mxPoint x="1140" y="860" />
              <mxPoint x="1540" y="860" />
            </Array>
          </mxGeometry>
        </mxCell>
        <mxCell id="Snn5ZzjotbLWIZ3ZBTEd-35" value="叔侄" style="edgeLabel;html=1;align=center;verticalAlign=middle;resizable=0;points=[];" vertex="1" connectable="0" parent="Snn5ZzjotbLWIZ3ZBTEd-18">
          <mxGeometry x="-0.6136" y="35" relative="1" as="geometry">
            <mxPoint as="offset" />
          </mxGeometry>
        </mxCell>
        <mxCell id="Snn5ZzjotbLWIZ3ZBTEd-21" value="夫妻" style="edgeStyle=orthogonalEdgeStyle;curved=1;rounded=0;orthogonalLoop=1;jettySize=auto;html=1;endArrow=none;endFill=0;" edge="1" parent="1" source="Snn5ZzjotbLWIZ3ZBTEd-17" target="Snn5ZzjotbLWIZ3ZBTEd-20">
          <mxGeometry relative="1" as="geometry" />
        </mxCell>
        <mxCell id="Snn5ZzjotbLWIZ3ZBTEd-27" style="edgeStyle=orthogonalEdgeStyle;curved=1;rounded=0;orthogonalLoop=1;jettySize=auto;html=1;" edge="1" parent="1" source="Snn5ZzjotbLWIZ3ZBTEd-17" target="Snn5ZzjotbLWIZ3ZBTEd-26">
          <mxGeometry relative="1" as="geometry">
            <Array as="points">
              <mxPoint x="1140" y="690" />
              <mxPoint x="1270" y="690" />
            </Array>
          </mxGeometry>
        </mxCell>
        <mxCell id="Snn5ZzjotbLWIZ3ZBTEd-29" value="父女" style="edgeLabel;html=1;align=center;verticalAlign=middle;resizable=0;points=[];" vertex="1" connectable="0" parent="Snn5ZzjotbLWIZ3ZBTEd-27">
          <mxGeometry x="-0.1207" relative="1" as="geometry">
            <mxPoint as="offset" />
          </mxGeometry>
        </mxCell>
        <mxCell id="Snn5ZzjotbLWIZ3ZBTEd-33" style="edgeStyle=orthogonalEdgeStyle;curved=1;rounded=0;orthogonalLoop=1;jettySize=auto;html=1;entryX=0.5;entryY=0;entryDx=0;entryDy=0;" edge="1" parent="1" source="Snn5ZzjotbLWIZ3ZBTEd-17" target="Snn5ZzjotbLWIZ3ZBTEd-10">
          <mxGeometry relative="1" as="geometry">
            <Array as="points">
              <mxPoint x="1140" y="860" />
              <mxPoint x="840" y="860" />
            </Array>
          </mxGeometry>
        </mxCell>
        <mxCell id="Snn5ZzjotbLWIZ3ZBTEd-34" value="叔侄" style="edgeLabel;html=1;align=center;verticalAlign=middle;resizable=0;points=[];" vertex="1" connectable="0" parent="Snn5ZzjotbLWIZ3ZBTEd-33">
          <mxGeometry x="-0.5488" y="-29" relative="1" as="geometry">
            <mxPoint as="offset" />
          </mxGeometry>
        </mxCell>
        <mxCell id="Snn5ZzjotbLWIZ3ZBTEd-17" value="田主任&lt;br&gt;二叔&lt;br&gt;县领导" style="whiteSpace=wrap;html=1;rounded=0;" vertex="1" parent="1">
          <mxGeometry x="1080" y="620" width="120" height="60" as="geometry" />
        </mxCell>
        <mxCell id="Snn5ZzjotbLWIZ3ZBTEd-28" style="edgeStyle=orthogonalEdgeStyle;curved=1;rounded=0;orthogonalLoop=1;jettySize=auto;html=1;" edge="1" parent="1" source="Snn5ZzjotbLWIZ3ZBTEd-20" target="Snn5ZzjotbLWIZ3ZBTEd-26">
          <mxGeometry relative="1" as="geometry">
            <Array as="points">
              <mxPoint x="1400" y="690" />
              <mxPoint x="1270" y="690" />
            </Array>
          </mxGeometry>
        </mxCell>
        <mxCell id="Snn5ZzjotbLWIZ3ZBTEd-30" value="母女" style="edgeLabel;html=1;align=center;verticalAlign=middle;resizable=0;points=[];" vertex="1" connectable="0" parent="Snn5ZzjotbLWIZ3ZBTEd-28">
          <mxGeometry x="-0.2107" y="1" relative="1" as="geometry">
            <mxPoint as="offset" />
          </mxGeometry>
        </mxCell>
        <mxCell id="Snn5ZzjotbLWIZ3ZBTEd-20" value="徐大夫&lt;br&gt;二叔&lt;br&gt;县医院" style="whiteSpace=wrap;html=1;rounded=0;" vertex="1" parent="1">
          <mxGeometry x="1340" y="620" width="120" height="60" as="geometry" />
        </mxCell>
        <mxCell id="Snn5ZzjotbLWIZ3ZBTEd-26" value="&lt;font style=&quot;&quot;&gt;田晓霞&lt;br&gt;&lt;/font&gt;" style="whiteSpace=wrap;html=1;rounded=0;" vertex="1" parent="1">
          <mxGeometry x="1210" y="740" width="120" height="60" as="geometry" />
        </mxCell>
        <mxCell id="Snn5ZzjotbLWIZ3ZBTEd-37" style="edgeStyle=orthogonalEdgeStyle;curved=1;rounded=0;orthogonalLoop=1;jettySize=auto;html=1;endArrow=none;endFill=0;" edge="1" parent="1" source="Snn5ZzjotbLWIZ3ZBTEd-36" target="dh_qy-4-Et_KlTZyHgmO-1">
          <mxGeometry relative="1" as="geometry" />
        </mxCell>
        <mxCell id="Snn5ZzjotbLWIZ3ZBTEd-38" value="父子" style="edgeLabel;html=1;align=center;verticalAlign=middle;resizable=0;points=[];" vertex="1" connectable="0" parent="Snn5ZzjotbLWIZ3ZBTEd-37">
          <mxGeometry x="0.1429" y="1" relative="1" as="geometry">
            <mxPoint as="offset" />
          </mxGeometry>
        </mxCell>
        <mxCell id="Snn5ZzjotbLWIZ3ZBTEd-51" style="edgeStyle=orthogonalEdgeStyle;rounded=0;orthogonalLoop=1;jettySize=auto;html=1;entryX=0.5;entryY=0;entryDx=0;entryDy=0;exitX=0.5;exitY=1;exitDx=0;exitDy=0;" edge="1" parent="1" source="Snn5ZzjotbLWIZ3ZBTEd-36" target="Snn5ZzjotbLWIZ3ZBTEd-47">
          <mxGeometry relative="1" as="geometry" />
        </mxCell>
        <mxCell id="Snn5ZzjotbLWIZ3ZBTEd-52" value="父女" style="edgeLabel;html=1;align=center;verticalAlign=middle;resizable=0;points=[];" vertex="1" connectable="0" parent="Snn5ZzjotbLWIZ3ZBTEd-51">
          <mxGeometry x="0.02" y="-1" relative="1" as="geometry">
            <mxPoint y="1" as="offset" />
          </mxGeometry>
        </mxCell>
        <mxCell id="Snn5ZzjotbLWIZ3ZBTEd-36" value="&lt;font style=&quot;font-size: 24px;&quot;&gt;孙玉厚&lt;/font&gt;" style="rounded=0;whiteSpace=wrap;html=1;" vertex="1" parent="1">
          <mxGeometry x="1010" y="310" width="120" height="60" as="geometry" />
        </mxCell>
        <mxCell id="Snn5ZzjotbLWIZ3ZBTEd-39" value="&lt;font style=&quot;&quot;&gt;&lt;font style=&quot;font-size: 18px;&quot;&gt;金波&lt;/font&gt;&lt;br&gt;&lt;span style=&quot;font-size: 18px;&quot;&gt;同班&lt;/span&gt;&lt;br&gt;&lt;/font&gt;" style="whiteSpace=wrap;html=1;rounded=0;" vertex="1" parent="1">
          <mxGeometry x="620" y="950" width="120" height="60" as="geometry" />
        </mxCell>
        <mxCell id="Snn5ZzjotbLWIZ3ZBTEd-44" style="edgeStyle=orthogonalEdgeStyle;rounded=0;orthogonalLoop=1;jettySize=auto;html=1;" edge="1" parent="1" source="Snn5ZzjotbLWIZ3ZBTEd-43" target="Snn5ZzjotbLWIZ3ZBTEd-39">
          <mxGeometry relative="1" as="geometry" />
        </mxCell>
        <mxCell id="Snn5ZzjotbLWIZ3ZBTEd-45" value="父子" style="edgeLabel;html=1;align=center;verticalAlign=middle;resizable=0;points=[];" vertex="1" connectable="0" parent="Snn5ZzjotbLWIZ3ZBTEd-44">
          <mxGeometry x="0.0167" y="-1" relative="1" as="geometry">
            <mxPoint y="1" as="offset" />
          </mxGeometry>
        </mxCell>
        <mxCell id="Snn5ZzjotbLWIZ3ZBTEd-43" value="&lt;font style=&quot;&quot;&gt;&lt;font style=&quot;font-size: 18px;&quot;&gt;金波&lt;/font&gt;&lt;br&gt;&lt;span style=&quot;font-size: 18px;&quot;&gt;卡车司机&lt;/span&gt;&lt;br&gt;&lt;/font&gt;" style="whiteSpace=wrap;html=1;rounded=0;" vertex="1" parent="1">
          <mxGeometry x="510" y="820" width="120" height="60" as="geometry" />
        </mxCell>
        <mxCell id="Snn5ZzjotbLWIZ3ZBTEd-49" style="edgeStyle=orthogonalEdgeStyle;rounded=0;orthogonalLoop=1;jettySize=auto;html=1;entryX=0.5;entryY=0;entryDx=0;entryDy=0;" edge="1" parent="1" source="Snn5ZzjotbLWIZ3ZBTEd-47" target="dh_qy-4-Et_KlTZyHgmO-1">
          <mxGeometry relative="1" as="geometry" />
        </mxCell>
        <mxCell id="Snn5ZzjotbLWIZ3ZBTEd-50" value="姐弟" style="edgeLabel;html=1;align=center;verticalAlign=middle;resizable=0;points=[];" vertex="1" connectable="0" parent="Snn5ZzjotbLWIZ3ZBTEd-49">
          <mxGeometry x="-0.1187" y="-3" relative="1" as="geometry">
            <mxPoint x="1" as="offset" />
          </mxGeometry>
        </mxCell>
        <mxCell id="Snn5ZzjotbLWIZ3ZBTEd-47" value="&lt;font style=&quot;font-size: 24px;&quot;&gt;孙兰花&lt;/font&gt;" style="rounded=0;whiteSpace=wrap;html=1;" vertex="1" parent="1">
          <mxGeometry x="1200" y="430" width="120" height="60" as="geometry" />
        </mxCell>
      </root>
    </mxGraphModel>
  </diagram>
</mxfile>
